<svg width="174" height="122" viewBox="0 0 174 122" fill="none" xmlns="http://www.w3.org/2000/svg">
<rect width="174" height="122" rx="10" fill="#100D40"/>
<mask id="mask0_394_160" style="mask-type:alpha" maskUnits="userSpaceOnUse" x="0" y="0" width="174" height="122">
<rect width="174" height="122" rx="10" fill="#0E2375"/>
</mask>
<g mask="url(#mask0_394_160)">
<rect x="-12" y="12" width="45.7504" height="67.806" transform="matrix(-1 0 0 1 31.2841 -40.2926)" stroke="url(#paint0_linear_394_160)" stroke-width="24"/>
<path d="M183.284 119.067C183.284 136.566 170.669 148.712 157.505 148.712C144.34 148.712 131.725 136.566 131.725 119.067C131.725 101.569 144.34 89.4231 157.505 89.4231C170.669 89.4231 183.284 101.569 183.284 119.067Z" stroke="url(#paint1_linear_394_160)" stroke-width="24"/>
<ellipse cx="140.9" cy="21.3077" rx="9.9" ry="9.30769" fill="white" fill-opacity="0.4"/>
<ellipse cx="154.1" cy="21.3077" rx="9.9" ry="9.30769" fill="white" fill-opacity="0.2"/>
</g>
<path d="M14.016 53.524V56.32H17.064V57.22H14.016V60.1H17.424V61H12.924V52.624H17.424V53.524H14.016ZM18.6683 57.688C18.6683 57.016 18.8043 56.428 19.0763 55.924C19.3483 55.412 19.7203 55.016 20.1923 54.736C20.6723 54.456 21.2083 54.316 21.8003 54.316C22.3123 54.316 22.7883 54.436 23.2283 54.676C23.6683 54.908 24.0043 55.216 24.2363 55.6V52.12H25.3403V61H24.2363V59.764C24.0203 60.156 23.7003 60.48 23.2763 60.736C22.8523 60.984 22.3563 61.108 21.7883 61.108C21.2043 61.108 20.6723 60.964 20.1923 60.676C19.7203 60.388 19.3483 59.984 19.0763 59.464C18.8043 58.944 18.6683 58.352 18.6683 57.688ZM24.2363 57.7C24.2363 57.204 24.1363 56.772 23.9363 56.404C23.7363 56.036 23.4643 55.756 23.1203 55.564C22.7843 55.364 22.4123 55.264 22.0043 55.264C21.5963 55.264 21.2243 55.36 20.8883 55.552C20.5523 55.744 20.2843 56.024 20.0843 56.392C19.8843 56.76 19.7843 57.192 19.7843 57.688C19.7843 58.192 19.8843 58.632 20.0843 59.008C20.2843 59.376 20.5523 59.66 20.8883 59.86C21.2243 60.052 21.5963 60.148 22.0043 60.148C22.4123 60.148 22.7843 60.052 23.1203 59.86C23.4643 59.66 23.7363 59.376 23.9363 59.008C24.1363 58.632 24.2363 58.196 24.2363 57.7ZM27.7497 53.356C27.5417 53.356 27.3657 53.284 27.2217 53.14C27.0777 52.996 27.0057 52.82 27.0057 52.612C27.0057 52.404 27.0777 52.228 27.2217 52.084C27.3657 51.94 27.5417 51.868 27.7497 51.868C27.9497 51.868 28.1177 51.94 28.2537 52.084C28.3977 52.228 28.4697 52.404 28.4697 52.612C28.4697 52.82 28.3977 52.996 28.2537 53.14C28.1177 53.284 27.9497 53.356 27.7497 53.356ZM28.2777 54.424V61H27.1857V54.424H28.2777ZM31.4708 55.324V59.2C31.4708 59.52 31.5388 59.748 31.6748 59.884C31.8108 60.012 32.0468 60.076 32.3828 60.076H33.1868V61H32.2028C31.5948 61 31.1388 60.86 30.8348 60.58C30.5308 60.3 30.3788 59.84 30.3788 59.2V55.324H29.5268V54.424H30.3788V52.768H31.4708V54.424H33.1868V55.324H31.4708ZM34.1019 57.688C34.1019 57.016 34.2379 56.428 34.5099 55.924C34.7819 55.412 35.1539 55.016 35.6259 54.736C36.1059 54.456 36.6379 54.316 37.2219 54.316C37.7979 54.316 38.2979 54.44 38.7219 54.688C39.1459 54.936 39.4619 55.248 39.6699 55.624V54.424H40.7739V61H39.6699V59.776C39.4539 60.16 39.1299 60.48 38.6979 60.736C38.2739 60.984 37.7779 61.108 37.2099 61.108C36.6259 61.108 36.0979 60.964 35.6259 60.676C35.1539 60.388 34.7819 59.984 34.5099 59.464C34.2379 58.944 34.1019 58.352 34.1019 57.688ZM39.6699 57.7C39.6699 57.204 39.5699 56.772 39.3699 56.404C39.1699 56.036 38.8979 55.756 38.5539 55.564C38.2179 55.364 37.8459 55.264 37.4379 55.264C37.0299 55.264 36.6579 55.36 36.3219 55.552C35.9859 55.744 35.7179 56.024 35.5179 56.392C35.3179 56.76 35.2179 57.192 35.2179 57.688C35.2179 58.192 35.3179 58.632 35.5179 59.008C35.7179 59.376 35.9859 59.66 36.3219 59.86C36.6579 60.052 37.0299 60.148 37.4379 60.148C37.8459 60.148 38.2179 60.052 38.5539 59.86C38.8979 59.66 39.1699 59.376 39.3699 59.008C39.5699 58.632 39.6699 58.196 39.6699 57.7ZM43.7113 55.492C43.9033 55.116 44.1753 54.824 44.5273 54.616C44.8873 54.408 45.3233 54.304 45.8353 54.304V55.432H45.5473C44.3233 55.432 43.7113 56.096 43.7113 57.424V61H42.6193V54.424H43.7113V55.492ZM55.4431 52.636V53.524H53.1631V61H52.0711V53.524H49.7791V52.636H55.4431ZM56.3793 57.688C56.3793 57.016 56.5153 56.428 56.7873 55.924C57.0593 55.412 57.4313 55.016 57.9033 54.736C58.3833 54.456 58.9153 54.316 59.4993 54.316C60.0753 54.316 60.5753 54.44 60.9993 54.688C61.4233 54.936 61.7393 55.248 61.9473 55.624V54.424H63.0513V61H61.9473V59.776C61.7313 60.16 61.4073 60.48 60.9753 60.736C60.5513 60.984 60.0553 61.108 59.4873 61.108C58.9033 61.108 58.3753 60.964 57.9033 60.676C57.4313 60.388 57.0593 59.984 56.7873 59.464C56.5153 58.944 56.3793 58.352 56.3793 57.688ZM61.9473 57.7C61.9473 57.204 61.8473 56.772 61.6473 56.404C61.4473 56.036 61.1753 55.756 60.8313 55.564C60.4953 55.364 60.1233 55.264 59.7153 55.264C59.3073 55.264 58.9353 55.36 58.5993 55.552C58.2633 55.744 57.9953 56.024 57.7953 56.392C57.5953 56.76 57.4953 57.192 57.4953 57.688C57.4953 58.192 57.5953 58.632 57.7953 59.008C57.9953 59.376 58.2633 59.66 58.5993 59.86C58.9353 60.052 59.3073 60.148 59.7153 60.148C60.1233 60.148 60.4953 60.052 60.8313 59.86C61.1753 59.66 61.4473 59.376 61.6473 59.008C61.8473 58.632 61.9473 58.196 61.9473 57.7ZM65.9887 55.492C66.1807 55.116 66.4527 54.824 66.8047 54.616C67.1647 54.408 67.6007 54.304 68.1127 54.304V55.432H67.8247C66.6007 55.432 65.9887 56.096 65.9887 57.424V61H64.8967V54.424H65.9887V55.492ZM69.9612 53.356C69.7532 53.356 69.5772 53.284 69.4332 53.14C69.2972 52.996 69.2292 52.82 69.2292 52.612C69.2292 52.404 69.2972 52.228 69.4332 52.084C69.5772 51.94 69.7532 51.868 69.9612 51.868C70.1692 51.868 70.3412 51.94 70.4772 52.084C70.6212 52.228 70.6932 52.404 70.6932 52.612C70.6932 52.82 70.6212 52.996 70.4772 53.14C70.3412 53.284 70.1692 53.356 69.9612 53.356ZM70.5012 62.428C70.5012 63.012 70.3532 63.44 70.0572 63.712C69.7612 63.984 69.3292 64.12 68.7612 64.12H68.1252V63.196H68.5812C68.8852 63.196 69.0972 63.136 69.2172 63.016C69.3452 62.896 69.4092 62.692 69.4092 62.404V54.424H70.5012V62.428ZM78.3498 57.46C78.3498 57.668 78.3378 57.888 78.3138 58.12H73.0578C73.0978 58.768 73.3178 59.276 73.7178 59.644C74.1258 60.004 74.6178 60.184 75.1938 60.184C75.6658 60.184 76.0578 60.076 76.3698 59.86C76.6898 59.636 76.9138 59.34 77.0418 58.972H78.2178C78.0418 59.604 77.6898 60.12 77.1618 60.52C76.6338 60.912 75.9778 61.108 75.1938 61.108C74.5698 61.108 74.0098 60.968 73.5138 60.688C73.0258 60.408 72.6418 60.012 72.3618 59.5C72.0818 58.98 71.9418 58.38 71.9418 57.7C71.9418 57.02 72.0778 56.424 72.3498 55.912C72.6218 55.4 73.0018 55.008 73.4898 54.736C73.9858 54.456 74.5538 54.316 75.1938 54.316C75.8178 54.316 76.3698 54.452 76.8498 54.724C77.3298 54.996 77.6978 55.372 77.9538 55.852C78.2178 56.324 78.3498 56.86 78.3498 57.46ZM77.2218 57.232C77.2218 56.816 77.1298 56.46 76.9458 56.164C76.7618 55.86 76.5098 55.632 76.1898 55.48C75.8778 55.32 75.5298 55.24 75.1458 55.24C74.5938 55.24 74.1218 55.416 73.7298 55.768C73.3458 56.12 73.1258 56.608 73.0698 57.232H77.2218ZM81.1232 55.324V59.2C81.1232 59.52 81.1912 59.748 81.3272 59.884C81.4632 60.012 81.6992 60.076 82.0352 60.076H82.8392V61H81.8552C81.2472 61 80.7912 60.86 80.4872 60.58C80.1832 60.3 80.0312 59.84 80.0312 59.2V55.324H79.1792V54.424H80.0312V52.768H81.1232V54.424H82.8392V55.324H81.1232ZM83.7543 57.688C83.7543 57.016 83.8903 56.428 84.1623 55.924C84.4343 55.412 84.8063 55.016 85.2783 54.736C85.7583 54.456 86.2903 54.316 86.8743 54.316C87.4503 54.316 87.9503 54.44 88.3743 54.688C88.7983 54.936 89.1143 55.248 89.3223 55.624V54.424H90.4263V61H89.3223V59.776C89.1063 60.16 88.7823 60.48 88.3503 60.736C87.9263 60.984 87.4303 61.108 86.8623 61.108C86.2783 61.108 85.7503 60.964 85.2783 60.676C84.8063 60.388 84.4343 59.984 84.1623 59.464C83.8903 58.944 83.7543 58.352 83.7543 57.688ZM89.3223 57.7C89.3223 57.204 89.2223 56.772 89.0223 56.404C88.8223 56.036 88.5503 55.756 88.2063 55.564C87.8703 55.364 87.4983 55.264 87.0903 55.264C86.6823 55.264 86.3103 55.36 85.9743 55.552C85.6383 55.744 85.3703 56.024 85.1703 56.392C84.9703 56.76 84.8703 57.192 84.8703 57.688C84.8703 58.192 84.9703 58.632 85.1703 59.008C85.3703 59.376 85.6383 59.66 85.9743 59.86C86.3103 60.052 86.6823 60.148 87.0903 60.148C87.4983 60.148 87.8703 60.052 88.2063 59.86C88.5503 59.66 88.8223 59.376 89.0223 59.008C89.2223 58.632 89.3223 58.196 89.3223 57.7Z" fill="white" fill-opacity="0.8"/>
<defs>
<linearGradient id="paint0_linear_394_160" x1="65.2827" y1="5.10042" x2="13.9682" y2="94.3892" gradientUnits="userSpaceOnUse">
<stop stop-color="white" stop-opacity="0.48"/>
<stop offset="1" stop-color="white" stop-opacity="0"/>
</linearGradient>
<linearGradient id="paint1_linear_394_160" x1="92.3211" y1="117.308" x2="196.111" y2="96.8702" gradientUnits="userSpaceOnUse">
<stop stop-color="white" stop-opacity="0"/>
<stop offset="1" stop-color="white" stop-opacity="0.2"/>
</linearGradient>
</defs>
</svg>
