<svg width="375" height="288" viewBox="0 0 375 288" fill="none" xmlns="http://www.w3.org/2000/svg">
<rect width="375" height="288" fill="#100D40"/>
<g opacity="0.3">
<path d="M361.486 253.324C360.943 253.551 360.35 253.631 359.766 253.557L268.581 243.763C268.307 243.735 268.039 243.675 267.78 243.582C267.397 243.456 267.044 243.25 266.745 242.979C266.446 242.707 266.207 242.376 266.044 242.007L254.347 213.502C254.157 213.005 254.097 212.467 254.173 211.94C254.249 211.413 254.458 210.914 254.782 210.491C255.142 210.024 255.619 209.661 256.165 209.437C256.71 209.213 257.305 209.137 257.89 209.215L347.276 218.696L404.222 149.128C404.583 148.661 405.06 148.298 405.606 148.074C406.151 147.85 406.746 147.774 407.331 147.853C407.858 147.927 408.358 148.135 408.782 148.456C409.207 148.778 409.542 149.203 409.756 149.69L421.466 178.226C421.625 178.606 421.701 179.016 421.689 179.429C421.676 179.841 421.576 180.246 421.394 180.616C421.275 180.864 421.126 181.095 420.951 181.306L362.931 252.331C362.546 252.784 362.047 253.126 361.486 253.324ZM271.411 237.916L358.935 247.107L414.772 179.084L405.741 157.076L351.164 223.746C350.804 224.213 350.327 224.577 349.781 224.801C349.235 225.024 348.64 225.101 348.056 225.022L262.38 215.908L271.411 237.916Z" fill="white"/>
<path d="M344.903 212.914C344.375 213.14 343.798 213.227 343.227 213.166L252.041 203.371C251.488 203.347 250.953 203.167 250.497 202.854C250.041 202.54 249.682 202.105 249.461 201.597L237.751 173.062C237.541 172.551 237.478 171.992 237.569 171.448C237.66 170.903 237.901 170.395 238.266 169.981C238.627 169.514 239.104 169.151 239.65 168.927C240.195 168.703 240.79 168.626 241.375 168.705L330.693 178.286L337.913 169.33C338.274 168.863 338.751 168.5 339.297 168.276C339.842 168.052 340.437 167.976 341.022 168.054L373.299 171.479C373.845 171.532 374.367 171.73 374.812 172.052C375.257 172.373 375.608 172.808 375.829 173.31C376.032 173.822 376.091 174.379 376 174.922C375.91 175.465 375.672 175.973 375.314 176.391L346.292 211.872C345.928 212.335 345.449 212.694 344.903 212.914V212.914ZM254.815 197.475L342.352 206.697L366.702 176.911L341.826 174.262L334.593 183.187C334.219 183.639 333.74 183.992 333.198 184.214C332.656 184.437 332.067 184.522 331.484 184.462L245.784 175.467L254.815 197.475Z" fill="white"/>
<path d="M290.681 218.495C290.195 218.674 289.674 218.738 289.16 218.683L256.865 215.302C256.32 215.259 255.798 215.065 255.356 214.743C254.915 214.421 254.572 213.983 254.364 213.477C254.157 212.972 254.093 212.418 254.181 211.879C254.269 211.34 254.505 210.835 254.862 210.422L263.323 199.976C263.684 199.509 264.161 199.146 264.707 198.922C265.252 198.698 265.847 198.622 266.432 198.701L298.678 202.138C299.224 202.191 299.746 202.389 300.191 202.71C300.636 203.032 300.987 203.466 301.208 203.969C301.411 204.481 301.47 205.038 301.379 205.581C301.288 206.124 301.051 206.632 300.693 207.05L292.051 217.497C291.687 217.941 291.215 218.285 290.681 218.495V218.495ZM263.348 209.772L288.193 212.433L292.057 207.688L267.212 205.027L263.348 209.772Z" fill="white"/>
<path d="M387.415 178.798C386.887 179.023 386.31 179.11 385.739 179.05L328.511 172.971L321.278 181.895C320.918 182.362 320.44 182.726 319.895 182.949C319.349 183.173 318.754 183.25 318.17 183.171L285.893 179.746C285.344 179.7 284.819 179.505 284.373 179.183C283.927 178.86 283.577 178.422 283.362 177.915C283.167 177.402 283.111 176.846 283.202 176.305C283.292 175.764 283.526 175.256 283.877 174.835L312.9 139.353C313.273 138.901 313.752 138.548 314.294 138.326C314.836 138.103 315.425 138.018 316.008 138.078L407.194 147.872C407.739 147.921 408.261 148.119 408.702 148.444C409.143 148.769 409.486 149.209 409.694 149.716C409.896 150.223 409.954 150.777 409.86 151.315C409.767 151.854 409.527 152.356 409.166 152.765L388.63 177.863C388.302 178.264 387.887 178.584 387.415 178.798V178.798ZM326.011 166.878C326.539 166.652 327.116 166.565 327.687 166.626L384.928 172.736L400.71 153.402L316.839 144.528L292.439 174.19L317.378 176.994L324.612 168.07C324.958 167.55 325.443 167.137 326.011 166.878V166.878Z" fill="white"/>
<path d="M370.832 138.388C370.296 138.598 369.716 138.674 369.143 138.609L311.915 132.53L275.455 177.056C275.094 177.523 274.617 177.886 274.072 178.11C273.526 178.334 272.931 178.41 272.346 178.332L240.269 174.861C239.724 174.823 239.2 174.635 238.756 174.317C238.311 174 237.963 173.565 237.751 173.062C237.543 172.555 237.478 172.001 237.563 171.46C237.649 170.919 237.881 170.412 238.235 169.994L296.254 98.969C296.628 98.517 297.107 98.1641 297.649 97.9416C298.191 97.7191 298.78 97.6338 299.363 97.6934L390.549 107.488C391.094 107.537 391.616 107.735 392.056 108.06C392.497 108.385 392.84 108.825 393.048 109.332C393.251 109.839 393.308 110.393 393.215 110.931C393.122 111.469 392.881 111.971 392.52 112.381L372.034 137.422C371.714 137.833 371.302 138.163 370.832 138.388ZM309.415 126.437C309.943 126.211 310.52 126.124 311.091 126.185L368.332 132.295L384.127 112.993L300.256 104.118L246.898 169.598L271.699 172.241L308.045 127.435C308.409 126.991 308.881 126.647 309.415 126.437V126.437Z" fill="white"/>
<path d="M394.51 152.278C393.982 152.504 393.405 152.591 392.834 152.531L360.588 149.093C360.04 149.047 359.514 148.852 359.068 148.53C358.622 148.207 358.273 147.769 358.058 147.262C357.862 146.749 357.807 146.193 357.897 145.652C357.988 145.111 358.221 144.603 358.573 144.181L387.595 108.7C387.956 108.234 388.433 107.87 388.979 107.646C389.524 107.422 390.119 107.346 390.704 107.425C391.255 107.463 391.783 107.655 392.231 107.978C392.678 108.302 393.026 108.744 393.235 109.255L404.945 137.791C405.147 138.298 405.205 138.852 405.112 139.39C405.019 139.928 404.778 140.43 404.417 140.84L395.88 151.28C395.517 151.725 395.045 152.068 394.51 152.278ZM367.259 143.486L392.074 146.341L398.24 138.799L389.145 116.636L367.259 143.486Z" fill="white"/>
</g>
<g opacity="0.3">
<path d="M-19.0594 258.014C-19.4245 257.848 -19.7394 257.588 -19.9726 257.261L-57.2793 207.074C-57.3921 206.924 -57.4863 206.762 -57.5596 206.59C-57.6736 206.339 -57.7339 206.067 -57.7364 205.792C-57.739 205.517 -57.6838 205.244 -57.5744 204.991L-48.7181 185.94C-48.557 185.614 -48.3155 185.335 -48.0164 185.129C-47.7173 184.924 -47.3705 184.798 -47.009 184.763C-46.6084 184.728 -46.2056 184.798 -45.8409 184.968C-45.4762 185.137 -45.1625 185.4 -44.9315 185.729L-8.30039 234.87L52.8909 231.178C53.2915 231.143 53.6944 231.213 54.0591 231.383C54.4238 231.552 54.7374 231.815 54.9685 232.144C55.1754 232.442 55.3025 232.789 55.3379 233.15C55.3734 233.511 55.3158 233.876 55.1708 234.209L46.3048 253.281C46.188 253.537 46.0178 253.765 45.8056 253.949C45.5934 254.134 45.3441 254.271 45.0746 254.351C44.8957 254.406 44.7107 254.439 44.5238 254.449L-17.8936 258.278C-18.2987 258.295 -18.701 258.204 -19.0594 258.014ZM-53.0417 205.784L-17.1278 253.859L42.7765 250.327L49.6144 235.618L-9.02901 239.155C-9.42961 239.191 -9.8325 239.12 -10.1972 238.95C-10.5619 238.781 -10.8755 238.518 -11.1066 238.189L-46.2038 191.075L-53.0417 205.784Z" fill="white"/>
<path d="M-6.50361 231.006C-6.86112 230.846 -7.17171 230.598 -7.40573 230.284L-44.7124 180.096C-44.9561 179.808 -45.1141 179.457 -45.1682 179.083C-45.2223 178.71 -45.1705 178.328 -45.0186 177.983L-36.1526 158.91C-35.9944 158.569 -35.7437 158.279 -35.429 158.072C-35.1142 157.866 -34.7479 157.751 -34.3716 157.742C-33.971 157.707 -33.5681 157.777 -33.2034 157.947C-32.8388 158.117 -32.5251 158.379 -32.294 158.708L4.25538 207.862L12.0817 207.331C12.4823 207.296 12.8852 207.366 13.2499 207.536C13.6146 207.705 13.9282 207.968 14.1593 208.297L27.3857 226.042C27.6122 226.34 27.7552 226.693 27.8 227.065C27.8448 227.437 27.7899 227.814 27.6408 228.157C27.4783 228.495 27.2266 228.783 26.9128 228.989C26.5989 229.194 26.2348 229.311 25.8598 229.325L-5.33926 231.219C-5.73931 231.251 -6.14083 231.178 -6.50361 231.006V231.006ZM-40.4763 178.755L-4.57201 226.851L21.6129 225.254L11.4236 211.573L3.60694 212.083C3.20791 212.105 2.80952 212.029 2.44711 211.86C2.08469 211.692 1.76945 211.437 1.52936 211.117L-33.6384 164.046L-40.4763 178.755Z" fill="white"/>
<path d="M30.2565 236.498C29.899 236.338 29.5884 236.089 29.3544 235.775L5.9068 204.309L-1.90986 204.819C-2.31046 204.854 -2.71336 204.784 -3.07805 204.614C-3.44274 204.445 -3.75638 204.182 -3.98745 203.853L-17.2139 186.108C-17.4448 185.812 -17.5906 185.459 -17.6356 185.086C-17.6805 184.713 -17.6229 184.336 -17.4689 183.993C-17.3025 183.658 -17.0498 183.373 -16.7368 183.168C-16.4238 182.962 -16.0618 182.844 -15.688 182.825L15.5111 180.931C15.9101 180.909 16.3085 180.985 16.6709 181.154C17.0334 181.322 17.3486 181.578 17.5887 181.897L54.8954 232.085C55.1234 232.381 55.2659 232.733 55.3072 233.104C55.3485 233.476 55.2871 233.851 55.1296 234.19C54.9692 234.526 54.7187 234.811 54.406 235.014C54.0934 235.216 53.7307 235.328 53.3583 235.337L31.2866 236.673C30.9343 236.695 30.5818 236.635 30.2565 236.498V236.498ZM7.79976 200.237C8.15728 200.397 8.46787 200.646 8.70188 200.96L32.1398 232.446L49.1254 231.398L14.7438 185.299L-11.4024 186.813L-1.26143 200.598L6.55523 200.088C6.97586 200.021 7.40684 200.073 7.79976 200.237V200.237Z" fill="white"/>
<path d="M42.8118 209.489C42.4581 209.318 42.1517 209.063 41.9194 208.746L18.4718 177.28L-20.699 179.637C-21.0996 179.672 -21.5025 179.601 -21.8672 179.432C-22.2319 179.262 -22.5455 179 -22.7766 178.671L-35.8881 161.004C-36.1213 160.714 -36.2695 160.364 -36.3163 159.995C-36.363 159.625 -36.3064 159.25 -36.1528 158.91C-35.9954 158.572 -35.748 158.283 -35.4376 158.075C-35.1271 157.867 -34.7657 157.749 -34.3926 157.733L28.0249 153.903C28.4239 153.881 28.8223 153.957 29.1847 154.126C29.5471 154.294 29.8623 154.549 30.1024 154.869L67.4091 205.057C67.6372 205.352 67.7796 205.705 67.8209 206.076C67.8623 206.447 67.8008 206.823 67.6434 207.162C67.4829 207.498 67.2325 207.783 66.9198 207.985C66.6071 208.188 66.2445 208.3 65.872 208.309L43.8515 209.644C43.4977 209.673 43.1417 209.62 42.8118 209.489ZM20.3647 173.207C20.7222 173.367 21.0328 173.616 21.2669 173.93L44.7048 205.417L61.6807 204.39L27.2992 158.29L-30.1843 161.887L-20.0269 175.527L19.2308 172.984C19.6217 172.96 20.0121 173.037 20.3647 173.207V173.207Z" fill="white"/>
<path d="M46.8182 227.774C46.4607 227.614 46.1501 227.365 45.9161 227.051L32.7104 209.316C32.4794 209.02 32.3336 208.667 32.2887 208.294C32.2438 207.921 32.3014 207.543 32.4553 207.201C32.6217 206.866 32.8744 206.581 33.1874 206.376C33.5005 206.17 33.8625 206.052 34.2363 206.033L65.4354 204.139C65.836 204.104 66.2389 204.174 66.6036 204.344C66.9682 204.513 67.2819 204.776 67.513 205.105C67.7486 205.398 67.8974 205.752 67.9425 206.126C67.9875 206.499 67.9271 206.878 67.768 207.219L58.902 226.292C58.7415 226.628 58.4911 226.913 58.1784 227.116C57.8657 227.318 57.5031 227.43 57.1306 227.439L47.9521 227.998C47.5612 228.021 47.1708 227.944 46.8182 227.774ZM38.605 210.06L48.6628 223.806L55.2935 223.401L62.1796 208.588L38.605 210.06Z" fill="white"/>
</g>
<path d="M54.568 75.152V92H50.464V81.896L46.696 92H43.384L39.592 81.872V92H35.488V75.152H40.336L45.064 86.816L49.744 75.152H54.568ZM65.4873 92.168C63.9033 92.168 62.4473 91.8 61.1193 91.064C59.8073 90.328 58.7593 89.304 57.9753 87.992C57.2072 86.664 56.8232 85.176 56.8232 83.528C56.8232 81.88 57.2072 80.4 57.9753 79.088C58.7593 77.776 59.8073 76.752 61.1193 76.016C62.4473 75.28 63.9033 74.912 65.4873 74.912C67.0713 74.912 68.5193 75.28 69.8313 76.016C71.1593 76.752 72.1993 77.776 72.9513 79.088C73.7193 80.4 74.1033 81.88 74.1033 83.528C74.1033 85.176 73.7193 86.664 72.9513 87.992C72.1833 89.304 71.1433 90.328 69.8313 91.064C68.5193 91.8 67.0713 92.168 65.4873 92.168ZM65.4873 88.424C66.8313 88.424 67.9033 87.976 68.7032 87.08C69.5193 86.184 69.9273 85 69.9273 83.528C69.9273 82.04 69.5193 80.856 68.7032 79.976C67.9033 79.08 66.8313 78.632 65.4873 78.632C64.1273 78.632 63.0393 79.072 62.2233 79.952C61.4233 80.832 61.0233 82.024 61.0233 83.528C61.0233 85.016 61.4233 86.208 62.2233 87.104C63.0393 87.984 64.1273 88.424 65.4873 88.424ZM91.4584 92H87.3544L80.4904 81.608V92H76.3864V75.152H80.4904L87.3544 85.592V75.152H91.4584V92ZM98.5373 78.44V81.848H104.033V85.016H98.5373V88.712H104.753V92H94.4333V75.152H104.753V78.44H98.5373ZM118.386 75.152V78.44H111.522V81.992H116.658V85.184H111.522V92H107.418V75.152H118.386ZM124.647 75.152V92H120.543V75.152H124.647Z" fill="white"/>
</svg>
