<svg width="174" height="122" viewBox="0 0 174 122" fill="none" xmlns="http://www.w3.org/2000/svg">
<rect width="174" height="122" rx="10" fill="#100D40"/>
<mask id="mask0_2_1271" style="mask-type:alpha" maskUnits="userSpaceOnUse" x="0" y="0" width="174" height="122">
<rect width="174" height="122" rx="10" fill="#0E2375"/>
</mask>
<g mask="url(#mask0_2_1271)">
<rect x="-12" y="12" width="45.7504" height="67.806" transform="matrix(-1 0 0 1 31.2841 -40.2926)" stroke="url(#paint0_linear_2_1271)" stroke-width="24"/>
<path d="M183.284 119.067C183.284 136.566 170.669 148.712 157.505 148.712C144.34 148.712 131.725 136.566 131.725 119.067C131.725 101.569 144.34 89.4231 157.505 89.4231C170.669 89.4231 183.284 101.569 183.284 119.067Z" stroke="url(#paint1_linear_2_1271)" stroke-width="24"/>
<ellipse cx="140.9" cy="21.3077" rx="9.9" ry="9.30769" fill="white" fill-opacity="0.4"/>
<ellipse cx="154.1" cy="21.3077" rx="9.9" ry="9.30769" fill="white" fill-opacity="0.2"/>
</g>
<path d="M19.5 61H18.408L14.016 54.34V61H12.924V52.624H14.016L18.408 59.272V52.624H19.5V61ZM27.1935 54.424V61H26.1015V60.028C25.8935 60.364 25.6015 60.628 25.2255 60.82C24.8575 61.004 24.4495 61.096 24.0015 61.096C23.4895 61.096 23.0295 60.992 22.6215 60.784C22.2135 60.568 21.8895 60.248 21.6495 59.824C21.4175 59.4 21.3015 58.884 21.3015 58.276V54.424H22.3815V58.132C22.3815 58.78 22.5455 59.28 22.8735 59.632C23.2015 59.976 23.6495 60.148 24.2175 60.148C24.8015 60.148 25.2615 59.968 25.5975 59.608C25.9335 59.248 26.1015 58.724 26.1015 58.036V54.424H27.1935ZM35.0373 57.46C35.0373 57.668 35.0253 57.888 35.0013 58.12H29.7453C29.7853 58.768 30.0053 59.276 30.4053 59.644C30.8133 60.004 31.3053 60.184 31.8813 60.184C32.3533 60.184 32.7453 60.076 33.0573 59.86C33.3773 59.636 33.6013 59.34 33.7293 58.972H34.9053C34.7293 59.604 34.3773 60.12 33.8493 60.52C33.3213 60.912 32.6653 61.108 31.8813 61.108C31.2573 61.108 30.6973 60.968 30.2013 60.688C29.7133 60.408 29.3293 60.012 29.0493 59.5C28.7693 58.98 28.6293 58.38 28.6293 57.7C28.6293 57.02 28.7653 56.424 29.0373 55.912C29.3093 55.4 29.6893 55.008 30.1773 54.736C30.6733 54.456 31.2413 54.316 31.8813 54.316C32.5053 54.316 33.0573 54.452 33.5373 54.724C34.0173 54.996 34.3853 55.372 34.6413 55.852C34.9053 56.324 35.0373 56.86 35.0373 57.46ZM33.9093 57.232C33.9093 56.816 33.8173 56.46 33.6333 56.164C33.4493 55.86 33.1973 55.632 32.8773 55.48C32.5653 55.32 32.2173 55.24 31.8333 55.24C31.2813 55.24 30.8093 55.416 30.4173 55.768C30.0333 56.12 29.8133 56.608 29.7573 57.232H33.9093ZM38.9267 59.992L40.9667 54.424H42.1307L39.5507 61H38.2787L35.6987 54.424H36.8747L38.9267 59.992ZM42.7973 57.688C42.7973 57.016 42.9333 56.428 43.2053 55.924C43.4773 55.412 43.8493 55.016 44.3213 54.736C44.8013 54.456 45.3333 54.316 45.9173 54.316C46.4933 54.316 46.9933 54.44 47.4173 54.688C47.8413 54.936 48.1573 55.248 48.3653 55.624V54.424H49.4693V61H48.3653V59.776C48.1493 60.16 47.8253 60.48 47.3933 60.736C46.9693 60.984 46.4733 61.108 45.9053 61.108C45.3213 61.108 44.7933 60.964 44.3213 60.676C43.8493 60.388 43.4773 59.984 43.2053 59.464C42.9333 58.944 42.7973 58.352 42.7973 57.688ZM48.3653 57.7C48.3653 57.204 48.2653 56.772 48.0653 56.404C47.8653 56.036 47.5933 55.756 47.2493 55.564C46.9133 55.364 46.5413 55.264 46.1333 55.264C45.7253 55.264 45.3533 55.36 45.0173 55.552C44.6813 55.744 44.4133 56.024 44.2133 56.392C44.0133 56.76 43.9133 57.192 43.9133 57.688C43.9133 58.192 44.0133 58.632 44.2133 59.008C44.4133 59.376 44.6813 59.66 45.0173 59.86C45.3533 60.052 45.7253 60.148 46.1333 60.148C46.5413 60.148 46.9133 60.052 47.2493 59.86C47.5933 59.66 47.8653 59.376 48.0653 59.008C48.2653 58.632 48.3653 58.196 48.3653 57.7ZM59.6618 52.636V53.524H57.3818V61H56.2898V53.524H53.9978V52.636H59.6618ZM60.598 57.688C60.598 57.016 60.734 56.428 61.006 55.924C61.278 55.412 61.65 55.016 62.122 54.736C62.602 54.456 63.134 54.316 63.718 54.316C64.294 54.316 64.794 54.44 65.218 54.688C65.642 54.936 65.958 55.248 66.166 55.624V54.424H67.27V61H66.166V59.776C65.95 60.16 65.626 60.48 65.194 60.736C64.77 60.984 64.274 61.108 63.706 61.108C63.122 61.108 62.594 60.964 62.122 60.676C61.65 60.388 61.278 59.984 61.006 59.464C60.734 58.944 60.598 58.352 60.598 57.688ZM66.166 57.7C66.166 57.204 66.066 56.772 65.866 56.404C65.666 56.036 65.394 55.756 65.05 55.564C64.714 55.364 64.342 55.264 63.934 55.264C63.526 55.264 63.154 55.36 62.818 55.552C62.482 55.744 62.214 56.024 62.014 56.392C61.814 56.76 61.714 57.192 61.714 57.688C61.714 58.192 61.814 58.632 62.014 59.008C62.214 59.376 62.482 59.66 62.818 59.86C63.154 60.052 63.526 60.148 63.934 60.148C64.342 60.148 64.714 60.052 65.05 59.86C65.394 59.66 65.666 59.376 65.866 59.008C66.066 58.632 66.166 58.196 66.166 57.7ZM70.2074 55.492C70.3994 55.116 70.6714 54.824 71.0234 54.616C71.3834 54.408 71.8194 54.304 72.3314 54.304V55.432H72.0434C70.8194 55.432 70.2074 56.096 70.2074 57.424V61H69.1154V54.424H70.2074V55.492ZM74.18 53.356C73.972 53.356 73.796 53.284 73.652 53.14C73.516 52.996 73.448 52.82 73.448 52.612C73.448 52.404 73.516 52.228 73.652 52.084C73.796 51.94 73.972 51.868 74.18 51.868C74.388 51.868 74.56 51.94 74.696 52.084C74.84 52.228 74.912 52.404 74.912 52.612C74.912 52.82 74.84 52.996 74.696 53.14C74.56 53.284 74.388 53.356 74.18 53.356ZM74.72 62.428C74.72 63.012 74.572 63.44 74.276 63.712C73.98 63.984 73.548 64.12 72.98 64.12H72.344V63.196H72.8C73.104 63.196 73.316 63.136 73.436 63.016C73.564 62.896 73.628 62.692 73.628 62.404V54.424H74.72V62.428ZM82.5685 57.46C82.5685 57.668 82.5565 57.888 82.5325 58.12H77.2765C77.3165 58.768 77.5365 59.276 77.9365 59.644C78.3445 60.004 78.8365 60.184 79.4125 60.184C79.8845 60.184 80.2765 60.076 80.5885 59.86C80.9085 59.636 81.1325 59.34 81.2605 58.972H82.4365C82.2605 59.604 81.9085 60.12 81.3805 60.52C80.8525 60.912 80.1965 61.108 79.4125 61.108C78.7885 61.108 78.2285 60.968 77.7325 60.688C77.2445 60.408 76.8605 60.012 76.5805 59.5C76.3005 58.98 76.1605 58.38 76.1605 57.7C76.1605 57.02 76.2965 56.424 76.5685 55.912C76.8405 55.4 77.2205 55.008 77.7085 54.736C78.2045 54.456 78.7725 54.316 79.4125 54.316C80.0365 54.316 80.5885 54.452 81.0685 54.724C81.5485 54.996 81.9165 55.372 82.1725 55.852C82.4365 56.324 82.5685 56.86 82.5685 57.46ZM81.4405 57.232C81.4405 56.816 81.3485 56.46 81.1645 56.164C80.9805 55.86 80.7285 55.632 80.4085 55.48C80.0965 55.32 79.7485 55.24 79.3645 55.24C78.8125 55.24 78.3405 55.416 77.9485 55.768C77.5645 56.12 77.3445 56.608 77.2885 57.232H81.4405ZM85.3419 55.324V59.2C85.3419 59.52 85.4099 59.748 85.5459 59.884C85.6819 60.012 85.9179 60.076 86.2539 60.076H87.0579V61H86.0739C85.4659 61 85.0099 60.86 84.7059 60.58C84.4019 60.3 84.2499 59.84 84.2499 59.2V55.324H83.3979V54.424H84.2499V52.768H85.3419V54.424H87.0579V55.324H85.3419ZM87.973 57.688C87.973 57.016 88.109 56.428 88.381 55.924C88.653 55.412 89.025 55.016 89.497 54.736C89.977 54.456 90.509 54.316 91.093 54.316C91.669 54.316 92.169 54.44 92.593 54.688C93.017 54.936 93.333 55.248 93.541 55.624V54.424H94.645V61H93.541V59.776C93.325 60.16 93.001 60.48 92.569 60.736C92.145 60.984 91.649 61.108 91.081 61.108C90.497 61.108 89.969 60.964 89.497 60.676C89.025 60.388 88.653 59.984 88.381 59.464C88.109 58.944 87.973 58.352 87.973 57.688ZM93.541 57.7C93.541 57.204 93.441 56.772 93.241 56.404C93.041 56.036 92.769 55.756 92.425 55.564C92.089 55.364 91.717 55.264 91.309 55.264C90.901 55.264 90.529 55.36 90.193 55.552C89.857 55.744 89.589 56.024 89.389 56.392C89.189 56.76 89.089 57.192 89.089 57.688C89.089 58.192 89.189 58.632 89.389 59.008C89.589 59.376 89.857 59.66 90.193 59.86C90.529 60.052 90.901 60.148 91.309 60.148C91.717 60.148 92.089 60.052 92.425 59.86C92.769 59.66 93.041 59.376 93.241 59.008C93.441 58.632 93.541 58.196 93.541 57.7Z" fill="white" fill-opacity="0.8"/>
<defs>
<linearGradient id="paint0_linear_2_1271" x1="65.2827" y1="5.10042" x2="13.9682" y2="94.3892" gradientUnits="userSpaceOnUse">
<stop stop-color="white" stop-opacity="0.48"/>
<stop offset="1" stop-color="white" stop-opacity="0"/>
</linearGradient>
<linearGradient id="paint1_linear_2_1271" x1="92.3211" y1="117.308" x2="196.111" y2="96.8702" gradientUnits="userSpaceOnUse">
<stop stop-color="white" stop-opacity="0"/>
<stop offset="1" stop-color="white" stop-opacity="0.2"/>
</linearGradient>
</defs>
</svg>
