<svg width="48" height="48" viewBox="0 0 48 48" fill="none" xmlns="http://www.w3.org/2000/svg">
<path d="M24 0C10.752 0 0 10.752 0 24C0 37.248 10.752 48 24 48C37.248 48 48 37.248 48 24C48 10.752 37.248 0 24 0ZM24 7.2C27.984 7.2 31.2 10.416 31.2 14.4C31.2 18.384 27.984 21.6 24 21.6C20.016 21.6 16.8 18.384 16.8 14.4C16.8 10.416 20.016 7.2 24 7.2ZM24 41.28C18 41.28 12.696 38.208 9.6 33.552C9.672 28.776 19.2 26.16 24 26.16C28.776 26.16 38.328 28.776 38.4 33.552C35.304 38.208 30 41.28 24 41.28Z" fill="#100D40"/>
<circle cx="39" cy="40" r="8" fill="#100D40"/>
<path d="M38.3641 42.3912L36.333 42.8223L36.7641 40.7912C36.7952 40.6445 36.8663 40.5112 36.973 40.4045L39.8175 37.5601C40.1197 37.2579 40.6086 37.2579 40.9108 37.5601L41.5908 38.2401C41.893 38.5423 41.893 39.0312 41.5908 39.3334L38.7463 42.1779C38.6441 42.2845 38.5108 42.3601 38.3641 42.3912Z" stroke="white" stroke-width="0.8" stroke-miterlimit="10" stroke-linecap="round" stroke-linejoin="round"/>
</svg>
